<svg id="Layer_1" data-name="Layer 1" xmlns="http://www.w3.org/2000/svg" viewBox="0 0 301 601">
  <defs>
    <style>
      .cls-1 {
        fill: #323232;
      }

      .cls-2 {
        fill: none;
        stroke: #fff;
        stroke-miterlimit: 10;
      }

      .cls-3 {
        fill: #fff;
      }
    </style>
  </defs>
  <title>placeholder</title>
  <rect class="cls-1" x="0.5" y="0.5" width="300" height="600"/>
  <g>
    <rect class="cls-2" x="0.5" y="0.5" width="300" height="600"/>
    <line class="cls-2" x1="0.5" y1="500.5" x2="300.5" y2="500.5"/>
    <line class="cls-2" x1="0.5" y1="400.5" x2="300.5" y2="400.5"/>
    <line class="cls-2" x1="0.5" y1="300.5" x2="300.5" y2="300.5"/>
    <line class="cls-2" x1="0.5" y1="200.5" x2="300.5" y2="200.5"/>
    <line class="cls-2" x1="0.5" y1="100.5" x2="300.5" y2="100.5"/>
    <line class="cls-2" x1="200.5" y1="0.5" x2="200.5" y2="600.5"/>
    <line class="cls-2" x1="100.5" y1="0.5" x2="100.5" y2="600.5"/>
  </g>
  <g>
    <path class="cls-3" d="M129.07,238.23H129l-4.43,2.4-.67-2.63,5.57-3h2.94v25.5h-3.33Z" transform="translate(0.5 0.5)"/>
    <path class="cls-3" d="M158.65,247.49c0,8.67-3.22,13.46-8.87,13.46-5,0-8.35-4.67-8.43-13.11s3.69-13.26,8.86-13.26C155.59,234.58,158.65,239.37,158.65,247.49Zm-13.85.39c0,6.63,2,10.4,5.18,10.4,3.53,0,5.22-4.12,5.22-10.63,0-6.28-1.61-10.4-5.18-10.4C147,237.25,144.8,240.94,144.8,247.88Z" transform="translate(0.5 0.5)"/>
    <path class="cls-3" d="M178.78,247.49c0,8.67-3.22,13.46-8.87,13.46-5,0-8.36-4.67-8.43-13.11s3.68-13.26,8.86-13.26C175.72,234.58,178.78,239.37,178.78,247.49Zm-13.85.39c0,6.63,2,10.4,5.18,10.4,3.53,0,5.21-4.12,5.21-10.63,0-6.28-1.6-10.4-5.17-10.4C167.13,237.25,164.93,240.94,164.93,247.88Z" transform="translate(0.5 0.5)"/>
  </g>
</svg>
